<svg width="100" height="100" xmlns="http://www.w3.org/2000/svg">

 <g>
  <title>background</title>
  <rect fill="none" id="canvas_background" height="402" width="582" y="-1" x="-1"/>
 </g>
 <g>
  <title>Layer 1</title>
  <ellipse stroke="null" transform="rotate(-0.030226359143853188 49.887145996113325,49.7566642761227) " ry="49.769757" rx="49.654942" id="svg_8" cy="49.756664" cx="49.887146" stroke-opacity="null" stroke-width="null" fill="#ffffff"/>
  <path id="svg_2" fill="#bf0000" d="m13.087,38.395447c0.155,0 0.312,-0.018 0.47,-0.056c1.074,-0.258 1.735,-1.338 1.477,-2.412c-0.392,-1.628 -0.59,-3.294 -0.59,-4.953c0,-9.861 7.64,-17.885 17.03,-17.885c9.718,0 16.839,6.77 16.934,16.098c0.012,1.097 0.903,1.979 2,1.979s1.988,-0.883 2,-1.979c0.096,-9.327 7.218,-16.098 16.935,-16.098c9.391,0 17.031,8.023 17.031,17.885c0,1.635 -0.191,3.273 -0.57,4.87c-0.255,1.074 0.41,2.152 1.485,2.407c1.072,0.249 2.152,-0.409 2.407,-1.485c0.449,-1.898 0.678,-3.847 0.678,-5.792c0,-12.067 -9.435,-21.885 -21.031,-21.885c-8.667,0 -15.665,4.393 -18.935,11.205c-3.269,-6.812 -10.266,-11.205 -18.934,-11.205c-11.596,0 -21.03,9.817 -21.03,21.885c0,1.974 0.236,3.955 0.701,5.889c0.22,0.917 1.039,1.532 1.942,1.532z"/>
  <path id="svg_3" fill="#bf0000" d="m76.312,49.15074l-25.905,25.781l-25.73,-25.61c-0.783,-0.777 -2.048,-0.776 -2.829,0.007c-0.778,0.783 -0.775,2.05 0.007,2.829l27.142,27.014c0.391,0.388 0.9,0.582 1.411,0.582s1.021,-0.194 1.411,-0.582l27.315,-27.185c0.782,-0.779 0.786,-2.046 0.007,-2.829c-0.782,-0.783 -2.046,-0.787 -2.829,-0.007z"/>
  <path id="svg_4" fill="#ffff00" d="m95.5,41.31574l0,-0.007l-0.002,0c-0.467,-0.379 -1.054,-0.615 -1.703,-0.615c-0.647,0 -1.233,0.236 -1.699,0.615l-29.14,0c-0.466,-0.379 -1.053,-0.615 -1.7,-0.615c-1.5,0 -2.712,1.213 -2.712,2.712c0,0.055 0.013,0.105 0.016,0.159l-7.811,10.374l-12.193,-24.304c0.059,-0.223 0.101,-0.452 0.101,-0.693c0,-1.496 -1.214,-2.711 -2.711,-2.711c-1.498,0 -2.712,1.215 -2.712,2.711c0,0.069 0.016,0.134 0.021,0.202l-9.153,12.165l-17.189,0c-0.467,-0.379 -1.053,-0.615 -1.7,-0.615c-1.501,0 -2.713,1.213 -2.713,2.712c0,1.498 1.212,2.712 2.713,2.712c0.755,0 1.437,-0.311 1.929,-0.809l17.958,0c0.629,0 1.221,-0.295 1.599,-0.798l8.906,-11.838l12.229,24.377c-0.082,0.26 -0.139,0.531 -0.139,0.818c0,1.497 1.213,2.711 2.712,2.711c1.498,0 2.714,-1.214 2.714,-2.711c0,-0.13 -0.021,-0.254 -0.038,-0.379l8.594,-11.415c0.585,-0.092 1.11,-0.362 1.508,-0.766l28.683,0c0.491,0.498 1.173,0.809 1.928,0.809c1.501,0 2.71,-1.214 2.71,-2.712c-0.001,-0.846 -0.006,-1.592 -1.006,-2.089z"/>
  <text stroke="null" transform="matrix(0.532445536389469,0,0,0.6486717616092293,7.798229705962841,25.81005726227449) " xml:space="preserve" text-anchor="start" font-family="Helvetica, Arial, sans-serif" font-size="24" id="svg_6" y="100.98797" x="30.550984" stroke-opacity="null" stroke-width="0" fill="#ffff00">Farmacia</text>
  <text stroke="null" transform="matrix(0.6686869859695435,0,0,0.7813873887062073,20.71224014274776,13.270468669943511) " xml:space="preserve" text-anchor="start" font-family="Helvetica, Arial, sans-serif" font-size="24" id="svg_7" y="86.704133" x="71.302715" stroke-opacity="null" stroke-width="0" fill="#bf0000">TE</text>
 </g>
</svg>